<svg id="visual" viewBox="0 0 960 540" width="960" height="540" xmlns="http://www.w3.org/2000/svg" xmlns:xlink="http://www.w3.org/1999/xlink" version="1.1"><path d="M0 33L87 66L175 60L262 50L349 39L436 50L524 55L611 23L698 23L785 50L873 33L960 66L960 0L873 0L785 0L698 0L611 0L524 0L436 0L349 0L262 0L175 0L87 0L0 0Z" fill="#038373"></path><path d="M0 125L87 141L175 190L262 179L349 228L436 179L524 244L611 114L698 136L785 163L873 120L960 201L960 64L873 31L785 48L698 21L611 21L524 53L436 48L349 37L262 48L175 58L87 64L0 31Z" fill="#008d79"></path><path d="M0 201L87 174L175 222L262 244L349 249L436 201L524 293L611 152L698 179L785 201L873 174L960 255L960 199L873 118L785 161L698 134L611 112L524 242L436 177L349 226L262 177L175 188L87 139L0 123Z" fill="#00977e"></path><path d="M0 239L87 206L175 276L262 303L349 330L436 244L524 363L611 244L698 255L785 282L873 255L960 320L960 253L873 172L785 199L698 177L611 150L524 291L436 199L349 247L262 242L175 220L87 172L0 199Z" fill="#00a282"></path><path d="M0 347L87 325L175 314L262 363L349 374L436 309L524 428L611 309L698 357L785 357L873 314L960 390L960 318L873 253L785 280L698 253L611 242L524 361L436 242L349 328L262 301L175 274L87 204L0 237Z" fill="#00ac86"></path><path d="M0 395L87 357L175 347L262 417L349 417L436 330L524 444L611 336L698 417L785 390L873 363L960 433L960 388L873 312L785 355L698 355L611 307L524 426L436 307L349 372L262 361L175 312L87 323L0 345Z" fill="#00b789"></path><path d="M0 525L87 525L175 514L262 525L349 492L436 492L524 514L611 509L698 519L785 509L873 498L960 514L960 431L873 361L785 388L698 415L611 334L524 442L436 328L349 415L262 415L175 345L87 355L0 393Z" fill="#00c18c"></path><path d="M0 541L87 541L175 541L262 541L349 541L436 541L524 541L611 541L698 541L785 541L873 541L960 541L960 512L873 496L785 507L698 517L611 507L524 512L436 490L349 490L262 523L175 512L87 523L0 523Z" fill="#00cc8e"></path></svg>